<svg id="Capa_1" enable-background="new 0 0 512 512" height="512" viewBox="0 0 512 512" width="512" xmlns="http://www.w3.org/2000/svg"><path d="m408 40v-16h-8v-8h-8v-8h-16v-8h-240v8h-16v8h-8v8h-8v16h-8v432h8v16h8v8h8v8h16v8h240v-8h16v-8h8v-8h8v-16h8v-432z" fill="#391910"/><path d="m400 40v-16h-8v-8h-16v-8h-240v8h-16v8h-8v16h-8v432h8v16h8v8h16v8h240v-8h16v-8h8v-16h8v-432zm-8 408h-272v-400h272z" fill="#612b6b"/><path d="m384 104v336h-256v-336zm-16 160v-48-8h-16v-8h-8v-8h8v-8h8v-24h-8v-8h-8v-8h-8v-8h-8v-8h-24v8h-8v8h-8v16h-8v-8h-8v8h-8v8h-16v-8h-8v-8h-8v8h-8v-16h-8v-8h-8v-8h-24v8h-8v8h-8v8h-8v8h-8v24h8v8h8v8h-8v8h-16v8 48h8v8h8v136h8v8h176v-8h8v-136h8v-8z" fill="#fff5e2"/><path d="m128 56h256v40h-256z" fill="#bde86b"/><path d="m216 472h80v8h-80z" fill="#9340b6"/><path d="m376 56h8v40h-8z" fill="#9dd44c"/><path d="m160 56h32v40h-32z" fill="#ffebc4"/><path d="m128 56h16v40h-16z" fill="#ffebc4"/><path d="m288 472h8v8h-8z" fill="#8138a0"/><path d="m376 104h8v336h-8z" fill="#ffebc4"/><path d="m136 8h240v8h-240z" fill="#8138a0"/><path d="m104 40h8v432h-8z" fill="#8138a0"/><path d="m112 472h8v16h-8z" fill="#8138a0"/><path d="m120 488h16v8h-16z" fill="#8138a0"/><path d="m112 24h8v16h-8z" fill="#8138a0"/><path d="m120 16h16v8h-16z" fill="#8138a0"/><path d="m280 184v24h-48v-24h8v-8h32v8z" fill="#e52929"/><path d="m272 184h8v24h-8z" fill="#bf2724"/><path d="m240 168v8h-8v-16h8z" fill="#bf2724"/><path d="m280 160v16h-8v-8-8z" fill="#bf2724"/><path d="m280 176h8v8h-8z" fill="#e52929"/><path d="m224 176h8v8h-8z" fill="#e52929"/><path d="m224 160v16h-8v-8h-8v-8h-8v-8h-8v-8h-8v-8h24v8h8v16z" fill="#e52929"/><path d="m328 136v8h-8v8h-8v8h-8v8h-8v8h-8v-16h8v-16h8v-8z" fill="#e52929"/><path d="m224 184v24h-56v-8h8v-8h-8v-8h-8v-24h8v-8h24v8h8v8h8v8h8v8z" fill="#e94c4b"/><path d="m352 160v24h-8v8h-8v8h8v8h-56v-24h8v-8h8v-8h8v-8h8v-8h24v8z" fill="#e94c4b"/><path d="m344 160h8v24h-8z" fill="#e52929"/><path d="m336 184h8v8h-8z" fill="#e52929"/><path d="m328 192h8v8h-8z" fill="#e52929"/><path d="m288 200h56v8h-56z" fill="#e52929"/><path d="m192 200h32v8h-32z" fill="#e52929"/><path d="m160 152h8v8h-8z" fill="#bf2724"/><path d="m160 184h8v8h-8z" fill="#bf2724"/><path d="m168 192h8v8h-8z" fill="#bf2724"/><path d="m280 160h8v16h-8z" fill="#4c2115"/><path d="m288 160v-16h8v16" fill="#4c2115"/><path d="m296 144v-8h8v8" fill="#4c2115"/><path d="m296 168h8v8h-8z" fill="#4c2115"/><path d="m304 160h8v8h-8z" fill="#4c2115"/><path d="m312 152h8v8h-8z" fill="#4c2115"/><path d="m240 168h32v8h-32z" fill="#4c2115"/><path d="m320 144h24v8h-24z" fill="#4c2115"/><path d="m304 128h24v8h-24z" fill="#4c2115"/><path d="m152 160h8v24h-8z" fill="#4c2115"/><path d="m192 128h16v8h-16z" fill="#4c2115"/><path d="m232 176h8v8h-8z" fill="#4c2115"/><path d="m224 184h8v24h-8z" fill="#4c2115"/><path d="m192 208h176v8h-176z" fill="#391910"/><path d="m280 184h8v24h-8z" fill="#391910"/><path d="m272 176h8v8h-8z" fill="#391910"/><path d="m288 176h8v8h-8z" fill="#391910"/><path d="m352 160h8v24h-8z" fill="#391910"/><path d="m344 152h8v8h-8z" fill="#391910"/><path d="m344 184h8v8h-8z" fill="#391910"/><path d="m336 192h8v8h-8z" fill="#391910"/><path d="m344 200h8v8h-8z" fill="#391910"/><path d="m328 136h8v8h-8z" fill="#391910"/><path d="m216 176h8v8h-8z" fill="#391910"/><path d="m232 152h8v8h-8z" fill="#391910"/><path d="m240 160h8v8h-8z" fill="#391910"/><path d="m264 160h8v8h-8z" fill="#391910"/><path d="m272 152h8v8h-8z" fill="#391910"/><path d="m224 160h8v16h-8z" fill="#391910"/><path d="m224 160v-16h-8v16" fill="#391910"/><path d="m216 144v-8h-8v8" fill="#391910"/><path d="m208 168h8v8h-8z" fill="#391910"/><path d="m200 160h8v8h-8z" fill="#391910"/><path d="m192 152h8v8h-8z" fill="#391910"/><path d="m168 272h56v136h-56z" fill="#fad0bb"/><path d="m288 272h56v136h-56z" fill="#fad0bb"/><path d="m232 272h48v136h-48z" fill="#e52929"/><path d="m232 216h48v48h-48z" fill="#e94c4b"/><path d="m288 216h72v48h-72z" fill="#fff5e2"/><path d="m152 216h72v48h-72z" fill="#fff5e2"/><path d="m232 200h48v8h-48z" fill="#bf2724"/><path d="m272 272h8v136h-8z" fill="#bf2724"/><path d="m272 216h8v48h-8z" fill="#e52929"/><path d="m232 272h48v8h-48z" fill="#bf2724"/><path d="m168 272h56v8h-56z" fill="#f8c3b6"/><path d="m288 272h56v8h-56z" fill="#f8c3b6"/><path d="m328 272h16v136h-16z" fill="#f8c3b6"/><path d="m312 392h8v8h-8z" fill="#f8c3b6"/><path d="m312 376h8v8h-8z" fill="#f8c3b6"/><path d="m312 360h8v8h-8z" fill="#f8c3b6"/><path d="m312 344h8v8h-8z" fill="#f8c3b6"/><path d="m312 328h8v8h-8z" fill="#f8c3b6"/><path d="m312 312h8v8h-8z" fill="#f8c3b6"/><path d="m312 296h8v8h-8z" fill="#f8c3b6"/><path d="m312 280h8v8h-8z" fill="#f8c3b6"/><path d="m320 400h8v8h-8z" fill="#f8c3b6"/><path d="m320 384h8v8h-8z" fill="#f8c3b6"/><path d="m320 368h8v8h-8z" fill="#f8c3b6"/><path d="m320 352h8v8h-8z" fill="#f8c3b6"/><path d="m320 336h8v8h-8z" fill="#f8c3b6"/><path d="m320 320h8v8h-8z" fill="#f8c3b6"/><path d="m320 304h8v8h-8z" fill="#f8c3b6"/><path d="m320 288h8v8h-8z" fill="#f8c3b6"/><path d="m336 248h8v8h-8z" fill="#ffebc4"/><path d="m336 232h8v8h-8z" fill="#ffebc4"/><path d="m336 216h8v8h-8z" fill="#ffebc4"/><path d="m344 256h8v8h-8z" fill="#ffebc4"/><path d="m344 240h8v8h-8z" fill="#ffebc4"/><path d="m344 224h8v8h-8z" fill="#ffebc4"/><path d="m352 216h8v48h-8z" fill="#ffebc4"/><path d="m160 272h8v136h-8z" fill="#99251f"/><path d="m128 104h16v336h-16z" fill="#fff"/><path d="m168 416v-8h-8v32h32v-24z" fill="#fff"/><path d="m168 272h24v136h-24z" fill="#fff5e2"/><path d="m168 408h24v8h-24z" fill="#99251f"/><path d="m160 264h32v8h-32z" fill="#bf2724"/><path d="m160 216h32v48h-32z" fill="#fff"/><path d="m168 208v-8h-8v16h32v-8z" fill="#bf2724"/><path d="m184 144v-8h-8v8h-8v8h24v-8z" fill="#bf2724"/><path d="m168 152v8h-8v24h8v8h8v8h-8v8h24v-56z" fill="#ef817f"/><path d="m160 104v48h8v-8h8v-8h8v-8h8v-24z" fill="#fff"/><path d="m184 128h8v8h-8z" fill="#bf2724"/><path d="m184 136h8v8h-8z" fill="#ed6f6e"/><path d="m128 96h16v8h-16z" fill="#72231a"/><path d="m160 96h32v8h-32z" fill="#72231a"/><path d="m144 216h8v48h-8z" fill="#4c2115"/><path d="m144 208h16v8h-16z" fill="#4c2115"/><path d="m152 264h8v8h-8z" fill="#4c2115"/><path d="m344 272h8v136h-8z" fill="#391910"/><path d="m192 408h152v8h-152z" fill="#391910"/><path d="m192 264h168v8h-168z" fill="#391910"/><path d="m360 216h8v48h-8z" fill="#391910"/><path d="m224 216h8v192h-8z" fill="#391910"/><path d="m280 216h8v192h-8z" fill="#391910"/><path d="m400 40h8v432h-8z" fill="#54254d"/><path d="m392 472h8v16h-8z" fill="#54254d"/><path d="m376 488h16v8h-16z" fill="#54254d"/><path d="m136 496h240v8h-240z" fill="#54254d"/><path d="m120 448h272v8h-272z" fill="#54254d"/><path d="m392 24h8v16h-8z" fill="#54254d"/><path d="m376 16h16v8h-16z" fill="#54254d"/><path d="m120 8h16v8h-16z" fill="#5f2218"/><path d="m112 16h8v8h-8z" fill="#5f2218"/><path d="m104 24h8v16h-8z" fill="#5f2218"/><path d="m96 40h8v16h-8z" fill="#5f2218"/><path d="m96 56h8v32h-8z" fill="#4c2115"/><path d="m136 0h32v8h-32z" fill="#4c2115"/><path d="m120 48h272v8h-272z" fill="#4c2115"/><path d="m120 56h8v384h-8z" fill="#4c2115"/><path d="m128 96h8v8h-8z" fill="#4c2115"/><g fill="#391910"><path d="m408 40h8v432h-8z"/><path d="m400 472h8v16h-8z"/><path d="m400 24h8v16h-8z"/><path d="m392 488h8v8h-8z"/><path d="m392 16h8v8h-8z"/><path d="m376 496h16v8h-16z"/><path d="m376 8h16v8h-16z"/><path d="m136 504h240v8h-240z"/><path d="m168 0h208v8h-208z"/><path d="m120 496h16v8h-16z"/><path d="m112 488h8v8h-8z"/><path d="m104 472h8v16h-8z"/><path d="m96 88h8v384h-8z"/><path d="m216 480h80v8h-80z"/><path d="m216 464h80v8h-80z"/><path d="m136 96h248v8h-248z"/><path d="m120 440h272v8h-272z"/><path d="m384 56h8v384h-8z"/><path d="m296 472h8v8h-8z"/><path d="m208 472h8v8h-8z"/><path d="m240 24h80v8h-80z"/><path d="m216 24h8v8h-8z"/><path d="m192 24h8v8h-8z"/></g></svg>